<svg width="22" height="22" viewBox="0 0 22 22" fill="none" xmlns="http://www.w3.org/2000/svg">
<path d="M2.89979 9.0742C3.07823 7.39609 4.58309 6.18028 6.2609 6.35873C6.53009 6.38745 6.78553 6.45345 7.02723 6.54542C7.45715 4.2122 9.61559 2.56709 12.0139 2.8207C14.0626 3.03856 15.6531 4.57459 16.0289 6.49653C16.1468 6.49531 16.2654 6.49928 16.3855 6.51181C18.0636 6.69026 19.2794 8.19542 19.101 9.87292C19.0527 10.3285 18.9024 10.7673 18.6613 11.1568C18.4202 11.5462 18.0944 11.8764 17.7082 12.1227C17.7284 12.3941 17.7284 12.6703 17.6988 12.9508C17.4311 15.4676 15.174 17.2927 12.6571 17.0238C11.6065 16.9136 10.6268 16.4422 9.88509 15.6901C9.6324 15.8915 9.34823 16.3583 9.04237 16.4723C7.37679 16.8579 5.80042 16.1842 5.03959 14.8422C4.7212 14.2986 4.87306 13.652 4.94487 12.9774C4.9687 12.7513 5.01881 12.5346 5.08817 12.3278C3.69179 11.9238 2.74273 10.5684 2.90162 9.07359L2.89979 9.0742Z" fill="white"/>
<path d="M6.56622 16.123C7.24027 16.123 7.78844 16.6712 7.78844 17.3453C7.78844 18.0193 7.24027 18.5675 6.56622 18.5675C5.89216 18.5675 5.34399 18.0193 5.34399 17.3453C5.34399 16.6712 5.89216 16.123 6.56622 16.123ZM3.77649 19.0992C3.86595 19.1029 3.9505 19.1411 4.01247 19.2057C4.07444 19.2704 4.10904 19.3564 4.10904 19.446C4.10904 19.5355 4.07444 19.6216 4.01247 19.6862C3.9505 19.7508 3.86595 19.789 3.77649 19.7928C3.58552 19.7928 3.42969 19.6372 3.42969 19.446C3.42969 19.2547 3.58552 19.0992 3.77649 19.0992Z" fill="white"/>
<path d="M6.56649 19.1803C7.57757 19.1803 8.39982 18.3581 8.39982 17.347C8.39982 16.3359 7.57757 15.5137 6.56649 15.5137C5.5554 15.5137 4.73315 16.3359 4.73315 17.347C4.73315 18.3581 5.5554 19.1803 6.56649 19.1803ZM6.56649 16.1248C7.24054 16.1248 7.78871 16.6729 7.78871 17.347C7.78871 18.0211 7.24054 18.5692 6.56649 18.5692C5.89243 18.5692 5.34426 18.0211 5.34426 17.347C5.34426 16.6729 5.89243 16.1248 6.56649 16.1248ZM3.77676 20.4056C4.30476 20.4056 4.73468 19.976 4.73468 19.4477C4.73468 18.9194 4.30507 18.4898 3.77676 18.4898C3.24846 18.4898 2.81885 18.9194 2.81885 19.4477C2.81885 19.976 3.24846 20.4056 3.77676 20.4056ZM3.77676 19.1009C3.86622 19.1046 3.95077 19.1428 4.01274 19.2075C4.07471 19.2721 4.10931 19.3582 4.10931 19.4477C4.10931 19.5372 4.07471 19.6233 4.01274 19.6879C3.95077 19.7526 3.86622 19.7907 3.77676 19.7945C3.58579 19.7945 3.42996 19.639 3.42996 19.4477C3.42996 19.2564 3.58579 19.1009 3.77676 19.1009Z" fill="black"/>
<path d="M5.34417 14.8447C5.12369 14.4685 4.98665 14.0493 4.94231 13.6155C4.89798 13.1817 4.94739 12.7434 5.0872 12.3303C3.69081 11.9264 2.74175 10.5709 2.90064 9.07615C3.07878 7.39804 4.58395 6.18224 6.26175 6.36068C6.53064 6.3894 6.78639 6.4554 7.02809 6.54738C7.458 4.21415 9.61614 2.56904 12.0148 2.82265C14.0638 3.04051 15.6539 4.57654 16.0298 6.49849C16.1474 6.49727 16.2663 6.50124 16.3863 6.51377C18.0644 6.69221 19.2799 8.19738 19.1018 9.87488C19.0536 10.3304 18.9033 10.7692 18.6622 11.1587C18.4211 11.5482 18.0953 11.8784 17.7091 12.1247C17.7293 12.396 17.7293 12.6722 17.6993 12.9527C17.4319 15.4696 15.1745 17.2947 12.6576 17.0258C11.6071 16.9155 10.6274 16.4441 9.88564 15.692C9.63185 15.8947 9.34737 16.0556 9.04292 16.1687" stroke="black" strokeMiterlimit="10" strokeLinecap="round" strokeLinejoin="round"/>
</svg>
