<svg width="29" height="29" viewBox="0 0 29 29" fill="none" xmlns="http://www.w3.org/2000/svg">
<path d="M18.9257 28.2451H18.7481C12.6833 28.2451 9.76016 25.8547 9.25476 20.5002C9.20012 19.9401 9.60991 19.4347 10.1836 19.3801C10.73 19.3255 11.249 19.7489 11.3037 20.309C11.6998 24.598 13.7214 26.1962 18.7618 26.1962H18.9394C24.4988 26.1962 26.4657 24.2292 26.4657 18.6698V9.76379C26.4657 4.20437 24.4988 2.2374 18.9394 2.2374H18.7618C13.6941 2.2374 11.6725 3.86288 11.3037 8.23392C11.2354 8.79396 10.7573 9.21741 10.1836 9.16277C9.60991 9.12179 9.20012 8.61639 9.2411 8.05635C9.70553 2.61987 12.6423 0.188477 18.7481 0.188477H18.9257C25.6325 0.188477 28.501 3.05697 28.501 9.76379V18.6698C28.501 25.3766 25.6325 28.2451 18.9257 28.2451Z" fill="#292D32"/>
<path d="M18.5963 15.2413H3.05181C2.49177 15.2413 2.02734 14.7769 2.02734 14.2168C2.02734 13.6568 2.49177 13.1924 3.05181 13.1924H18.5963C19.1563 13.1924 19.6207 13.6568 19.6207 14.2168C19.6207 14.7769 19.1563 15.2413 18.5963 15.2413Z" fill="#292D32"/>
<path d="M6.09698 19.8175C5.83745 19.8175 5.57792 19.7219 5.37303 19.517L0.797094 14.9411C0.400969 14.5449 0.400969 13.8893 0.797094 13.4932L5.37303 8.91721C5.76915 8.52109 6.42481 8.52109 6.82094 8.91721C7.21706 9.31334 7.21706 9.96899 6.82094 10.3651L2.96896 14.2171L6.82094 18.0691C7.21706 18.4652 7.21706 19.1209 6.82094 19.517C6.6297 19.7219 6.35651 19.8175 6.09698 19.8175Z" fill="#292D32"/>
</svg>
