<svg width="14" height="16" viewBox="0 0 14 16" fill="none" xmlns="http://www.w3.org/2000/svg">
<path d="M12.7852 10.8628V7.36845C12.7852 4.36552 12.7852 2.86546 11.9065 1.93238C11.0278 1 9.61316 1 6.78516 1C3.95716 1 2.54249 1 1.66382 1.93238C0.785156 2.86476 0.785156 4.36692 0.785156 7.36845V10.8635C0.785156 13.0306 0.785156 14.1149 1.27449 14.5881C1.50782 14.8142 1.80249 14.9563 2.11649 14.9941C2.77449 15.0732 3.54316 14.3592 5.07982 12.9319C5.75982 12.3012 6.09916 11.9855 6.49182 11.9029C6.68516 11.8609 6.88516 11.8609 7.07849 11.9029C7.47182 11.9855 7.81116 12.3012 8.49049 12.9319C10.0272 14.3592 10.7958 15.0732 11.4538 14.9934C11.7672 14.9563 12.0625 14.8142 12.2958 14.5881C12.7852 14.1149 12.7852 13.0306 12.7852 10.8628Z" stroke="black"/>
<path d="M8.79297 3.79883H4.79297" stroke="black" stroke-linecap="round"/>
</svg>
