<svg width="16" height="14" viewBox="0 0 16 14" fill="none" xmlns="http://www.w3.org/2000/svg">
<path d="M4.88125 7.89474H4.38125L1.04837 7.89475C1.04828 7.89475 1.04819 7.89474 1.04809 7.89474C0.968914 7.89459 0.895972 7.87543 0.838412 7.84494C0.780925 7.81449 0.74772 7.77786 0.731254 7.74905C0.7157 7.72185 0.713221 7.69942 0.715664 7.68124C0.71821 7.66229 0.728296 7.63332 0.759318 7.60051C0.759406 7.60041 0.759495 7.60032 0.759584 7.60022L7.42572 0.594756C7.42576 0.594721 7.42579 0.594686 7.42582 0.594651C7.46712 0.551458 7.56792 0.5 7.71484 0.5C7.86177 0.5 7.96257 0.551458 8.00386 0.594651C8.0039 0.594686 8.00393 0.594721 8.00396 0.594756L14.6701 7.60022C14.6702 7.60028 14.6702 7.60034 14.6703 7.6004C14.7014 7.63326 14.7115 7.66227 14.714 7.68124C14.7165 7.69942 14.714 7.72185 14.6984 7.74905C14.682 7.77786 14.6488 7.81449 14.5913 7.84494C14.5337 7.87543 14.4608 7.89459 14.3816 7.89474C14.3815 7.89474 14.3814 7.89475 14.3813 7.89475L11.0484 7.89474H10.5484V8.39474V13.2993C10.5484 13.3218 10.5385 13.3651 10.4826 13.4121C10.4241 13.4613 10.3288 13.5 10.215 13.5H5.21465C5.10089 13.5 5.00561 13.4613 4.94711 13.4121C4.89118 13.3651 4.88125 13.3218 4.88125 13.2993V8.39474V7.89474Z" stroke="black"/>
</svg>
